{"title":"Marvel's Agents of S H I E L D S02E04 1080p WEB-DL DD5.1 H.264-B","uid":11221177,"size":1712589990,"categoryP":"video","categoryS":"hd___tv_shows","magnet":"?xt=urn:btih:b84f2a4b48d9128bf988da86bc10ad9d68d7eeb9&amp;dn=Marvel%27s+Agents+of+S+H+I+E+L+D+S02E04+1080p+WEB-DL+DD5.1+H.264-B&amp;tr=udp%3A%2F%2Ftracker.openbittorrent.com%3A80&amp;tr=udp%3A%2F%2Fopen.demonii.com%3A1337&amp;tr=udp%3A%2F%2Ftracker.coppersurfer.tk%3A6969&amp;tr=udp%3A%2F%2Fexodus.desync.com%3A6969","seeders":4,"leechers":0,"uploader":null,"files":2,"time":1413387418,"description":"General\nUnique ID                        : 247305918433022223494379357953636301781 (0xBA0D632AE7C86BBF9EA246E2338DFBD5)\nComplete name                    : Marvel's.Agents.of.S.H.I.E.L.D.S02E04.Face.My.Enemy.1080p.WEB-DL.DD5.1.H.264-BS.mkv\nFormat                           : Matroska\nFormat version                   : Version 4 / Version 2\nFile size                        : 1.59 GiB\nDuration                         : 41mn 51s\nOverall bit rate                 : 5 456 Kbps\nEncoded date                     : UTC 2014-10-15 07:24:59\nWriting application              : mkvmerge v7.2.0 ('On Every Street') 64bit built on Sep 13 2014 15:52:10\nWriting library                  : libebml v1.3.0 + libmatroska v1.4.1\nDURATION                         : 00:41:50.976000000\nNUMBER_OF_FRAMES                 : 78468\nNUMBER_OF_BYTES                  : 120526848\n_STATISTICS_WRITING_APP          : mkvmerge v7.2.0 ('On Every Street') 64bit built on Sep 13 2014 15:52:10\n_STATISTICS_WRITING_DATE_UTC     : 2014-10-15 07:24:59\n_STATISTICS_TAGS                 : BPS DURATION NUMBER_OF_FRAMES NUMBER_OF_BYTES\nAttachment                       : Yes / Yes / Yes / Yes\n\nVideo\nID                               : 1\nFormat                           : AVC\nFormat/Info                      : Advanced Video Codec\nFormat profile                   : &lt;a class=&quot;__cf_email__&quot; href=&quot;/cdn-cgi/l/email-protection&quot; data-cfemail=&quot;521a3b353a121e667c62&quot;&gt;[email&amp;#160;protected]&lt;/a&gt;&lt;script cf-hash='f9e31' type=&quot;text/javascript&quot;&gt;\n/* &lt;![CDATA[ */!function(){try{var t=&quot;currentScript&quot;in document?document.currentScript:function(){for(var t=document.getElementsByTagName(&quot;script&quot;),e=t.length;e--;)if(t[e].getAttribute(&quot;cf-hash&quot;))return t[e]}();if(t&amp;&amp;t.previousSibling){var e,r,n,i,c=t.previousSibling,a=c.getAttribute(&quot;data-cfemail&quot;);if(a){for(e=&quot;&quot;,r=parseInt(a.substr(0,2),16),n=2;a.length-n;n+=2)i=parseInt(a.substr(n,2),16)^r,e+=String.fromCharCode(i);e=document.createTextNode(e),c.parentNode.replaceChild(e,c)}}}catch(u){}}();/* ]]&gt; */&lt;/script&gt;\nFormat settings, CABAC           : Yes\nFormat settings, ReFrames        : 4 frames\nFormat settings, GOP             : M=2, N=53\nCodec ID                         : V_MPEG4/ISO/AVC\nDuration                         : 41mn 51s\nBit rate                         : 4 964 Kbps\nWidth                            : 1 920 pixels\nHeight                           : 1 080 pixels\nDisplay aspect ratio             : 16:9\nFrame rate                       : 23.976 fps\nColor space                      : YUV\nChroma subsampling               : 4:2:0\nBit depth                        : 8 bits\nScan type                        : Progressive\nBits/(Pixel*Frame)               : 0.100\nStream size                      : 1.45 GiB (91%)\nLanguage                         : English\nColor primaries                  : BT.709-5, BT.1361, IEC 61966-2-4, SMPTE RP177\nTransfer characteristics         : BT.709-5, BT.1361\nMatrix coefficients              : BT.709-5, BT.1361, IEC 61966-2-4 709, SMPTE RP177\n\nAudio\nID                               : 2\nFormat                           : AC-3\nFormat/Info                      : Audio Coding 3\nMode extension                   : CM (complete main)\nCodec ID                         : A_AC3\nDuration                         : 41mn 51s\nBit rate mode                    : Constant\nBit rate                         : 384 Kbps\nChannel(s)                       : 6 channels\nChannel positions                : Front: L C R, Side: L R, LFE\nSampling rate                    : 48.0 KHz\nBit depth                        : 16 bits\nCompression mode                 : Lossy\nStream size                      : 115 MiB (7%)\nLanguage                         : English\n\nText\nID                               : 3\nFormat                           : UTF-8\nCodec ID                         : S_TEXT/UTF8\nCodec ID/Info                    : UTF-8 Plain Text\nTitle                            : CC\nLanguage                         : English","torrent":{"xt":"urn:btih:b84f2a4b48d9128bf988da86bc10ad9d68d7eeb9","amp;dn":"Marvel%27s+Agents+of+S+H+I+E+L+D+S02E04+1080p+WEB-DL+DD5.1+H.264-B","amp;tr":["udp%3A%2F%2Ftracker.openbittorrent.com%3A80","udp%3A%2F%2Fopen.demonii.com%3A1337","udp%3A%2F%2Ftracker.coppersurfer.tk%3A6969","udp%3A%2F%2Fexodus.desync.com%3A6969"],"infoHash":"b84f2a4b48d9128bf988da86bc10ad9d68d7eeb9","infoHashBuffer":{"type":"Buffer","data":[184,79,42,75,72,217,18,139,249,136,218,134,188,16,173,157,104,215,238,185]},"announce":[],"urlList":[]}}